<svg width="381" height="125" viewBox="0 0 381 125" fill="none" xmlns="http://www.w3.org/2000/svg">
<path d="M104.496 26.2546L62.1901 1.7808C58.0896 -0.593601 53.0334 -0.593601 48.9328 1.7808L6.62681 26.2546C2.52624 28.629 0 33.0148 0 37.7599V86.7075C0 91.4526 2.52624 95.8384 6.62681 98.2128L48.9328 122.687C53.0334 125.061 58.0896 125.061 62.1901 122.687L104.496 98.2128C108.597 95.8384 111.127 91.4526 111.127 86.7075V37.7599C111.127 33.0148 108.6 28.629 104.496 26.2546Z" fill="#3355FF"/>
<path fill-rule="evenodd" clip-rule="evenodd" d="M27.1925 77.4099C31.6005 81.8142 37.4569 84.2404 43.6874 84.2404C49.9179 84.2404 55.778 81.8142 60.1823 77.4099L70.7393 66.8528C72.5618 65.0304 72.5618 62.0781 70.7393 60.2556C68.9168 58.4331 65.9645 58.4331 64.1421 60.2556L53.585 70.8126C50.9402 73.4575 47.4286 74.9132 43.6874 74.9132C39.9461 74.9132 36.4345 73.4575 33.7897 70.8126C28.3334 65.3563 28.3334 56.4773 33.7897 51.021L37.7495 47.0612C39.572 45.2387 39.572 42.2864 37.7495 40.464C35.927 38.6415 32.9748 38.6415 31.1523 40.464L27.1925 44.4238C18.0986 53.5176 18.0986 68.316 27.1925 77.4099ZM73.373 84.0034C74.2838 84.9141 75.4794 85.3698 76.6716 85.3702C76.671 85.3702 76.6703 85.3702 76.6697 85.3702H76.6734C76.6728 85.3702 76.6722 85.3702 76.6716 85.3702C77.8674 85.3698 79.0594 84.9142 79.9702 84.0034L83.93 80.0436C93.0239 70.9497 93.0239 56.1513 83.93 47.0575C74.8362 37.9636 60.0378 37.9636 50.9439 47.0575L40.3869 57.6145C38.5644 59.437 38.5644 62.3892 40.3869 64.2117C42.2094 66.0342 45.1617 66.0342 46.9841 64.2117L57.5412 53.6547C62.9975 48.1984 71.8765 48.1984 77.3328 53.6547C82.7891 59.111 82.7891 67.99 77.3328 73.4464L73.373 77.4062C71.5505 79.2286 71.5505 82.1809 73.373 84.0034Z" fill="white"/>
<path d="M160.571 36.5285C160.536 44.2263 163.217 51.3399 171.293 54.6046L166.207 61.9588C161.086 59.8969 157.821 56.2885 155.863 51.7523C153.698 56.9758 150.124 61.2715 144.763 63.8145L139.127 56.3916C148.027 52.3709 150.914 44.5012 150.948 36.4597V32.8857H160.571V36.5285ZM151.086 72.9557V65.3953H194.661V82.8529H160.983V85.6021H196.654V93.3687H151.155V75.5675H184.833V72.9557H151.086ZM165.794 47.5941V39.8275H172.461V31.5111H181.808V63.1272H172.461V47.5941H165.794ZM185.245 63.2647V30.6863H194.661V63.2647H185.245Z" fill="#3355FF"/>
<path d="M254.526 30.6176V93.8498H244.697V60.9278H235.212V52.8864H244.697V30.6176H254.526ZM203.115 43.6764V35.7724H231.776V59.8969H213.15V71.1687C221.191 71.1343 228.339 70.8251 236.106 69.5192L236.862 77.4919C227.549 79.0384 218.854 79.3477 208.613 79.3477H203.321V52.0616H222.085V43.6764H203.115Z" fill="#3355FF"/>
<path d="M298.994 39.8275V47.6628H262.155V39.8275H275.557V31.6486H285.454V39.8275H298.994ZM265.179 65.8764C265.179 57.1477 271.777 50.6526 280.506 50.687C289.234 50.6526 295.73 57.1477 295.764 65.8764C295.73 74.5709 289.234 81.0659 280.506 81.0659C271.777 81.0659 265.179 74.5709 265.179 65.8764ZM274.389 65.8764C274.389 70.3783 277.035 72.7495 280.506 72.7495C284.045 72.7495 286.691 70.3783 286.691 65.8764C286.691 61.512 284.045 59.0034 280.506 59.0034C277.035 59.0034 274.389 61.512 274.389 65.8764ZM297.757 63.0585V55.0857H305.661V30.6176H315.421V93.7124H305.661V63.0585H297.757Z" fill="#3355FF"/>
<path d="M380.44 78.3167V86.3582H322.775V78.3167H380.44ZM328.686 68.4195V34.5353H338.583V44.5012H364.357V34.5353H374.254V68.4195H328.686ZM338.583 60.7216H364.357V52.199H338.583V60.7216Z" fill="#3355FF"/>
</svg>
