<svg width="381" height="125" viewBox="0 0 381 125" fill="none" xmlns="http://www.w3.org/2000/svg">
<path fill-rule="evenodd" clip-rule="evenodd" d="M62.1901 1.7808L104.496 26.2546C108.6 28.629 111.127 33.0148 111.127 37.7599V86.7075C111.127 91.4526 108.597 95.8384 104.496 98.2128L62.1901 122.687C58.0896 125.061 53.0334 125.061 48.9328 122.687L6.62681 98.2128C2.52624 95.8384 0 91.4526 0 86.7075V37.7599C0 33.0148 2.52624 28.629 6.62681 26.2546L48.9328 1.7808C53.0334 -0.593601 58.0896 -0.593601 62.1901 1.7808ZM43.6874 84.2404C37.4569 84.2404 31.6005 81.8142 27.1925 77.4099C18.0986 68.316 18.0986 53.5176 27.1925 44.4238L31.1523 40.464C32.9748 38.6415 35.927 38.6415 37.7495 40.464C39.572 42.2864 39.572 45.2387 37.7495 47.0612L33.7897 51.021C28.3334 56.4773 28.3334 65.3563 33.7897 70.8126C36.4345 73.4575 39.9461 74.9132 43.6874 74.9132C47.4286 74.9132 50.9402 73.4575 53.585 70.8126L64.1421 60.2556C65.9645 58.4331 68.9168 58.4331 70.7393 60.2556C72.5618 62.0781 72.5618 65.0304 70.7393 66.8528L60.1823 77.4099C55.778 81.8142 49.9179 84.2404 43.6874 84.2404ZM76.6716 85.3702C75.4794 85.3698 74.2838 84.9141 73.373 84.0034C71.5505 82.1809 71.5505 79.2286 73.373 77.4062L77.3328 73.4464C82.7891 67.99 82.7891 59.111 77.3328 53.6547C71.8765 48.1984 62.9975 48.1984 57.5412 53.6547L46.9841 64.2117C45.1617 66.0342 42.2094 66.0342 40.3869 64.2117C38.5644 62.3892 38.5644 59.437 40.3869 57.6145L50.9439 47.0575C60.0378 37.9636 74.8362 37.9636 83.93 47.0575C93.0239 56.1513 93.0239 70.9497 83.93 80.0436L79.9702 84.0034C79.0594 84.9142 77.8674 85.3698 76.6716 85.3702Z" fill="white"/>
<path d="M160.571 36.5285C160.536 44.2263 163.217 51.3399 171.293 54.6046L166.207 61.9588C161.086 59.8969 157.821 56.2885 155.863 51.7523C153.698 56.9758 150.124 61.2715 144.763 63.8145L139.127 56.3916C148.027 52.3709 150.914 44.5012 150.948 36.4597V32.8857H160.571V36.5285ZM151.086 72.9557V65.3953H194.661V82.8529H160.983V85.6021H196.654V93.3687H151.155V75.5675H184.833V72.9557H151.086ZM165.794 47.5941V39.8275H172.461V31.5111H181.808V63.1272H172.461V47.5941H165.794ZM185.245 63.2647V30.6863H194.661V63.2647H185.245Z" fill="white"/>
<path d="M254.526 30.6176V93.8498H244.697V60.9278H235.212V52.8864H244.697V30.6176H254.526ZM203.115 43.6764V35.7724H231.776V59.8969H213.15V71.1687C221.191 71.1343 228.339 70.8251 236.106 69.5192L236.862 77.4919C227.549 79.0384 218.854 79.3477 208.613 79.3477H203.321V52.0616H222.085V43.6764H203.115Z" fill="white"/>
<path d="M298.994 39.8275V47.6628H262.155V39.8275H275.557V31.6486H285.454V39.8275H298.994ZM265.179 65.8764C265.179 57.1477 271.777 50.6526 280.506 50.687C289.234 50.6526 295.73 57.1477 295.764 65.8764C295.73 74.5709 289.234 81.0659 280.506 81.0659C271.777 81.0659 265.179 74.5709 265.179 65.8764ZM274.389 65.8764C274.389 70.3783 277.035 72.7495 280.506 72.7495C284.045 72.7495 286.691 70.3783 286.691 65.8764C286.691 61.512 284.045 59.0034 280.506 59.0034C277.035 59.0034 274.389 61.512 274.389 65.8764ZM297.757 63.0585V55.0857H305.661V30.6176H315.421V93.7124H305.661V63.0585H297.757Z" fill="white"/>
<path d="M380.44 78.3167V86.3582H322.775V78.3167H380.44ZM328.686 68.4195V34.5353H338.583V44.5012H364.357V34.5353H374.254V68.4195H328.686ZM338.583 60.7216H364.357V52.199H338.583V60.7216Z" fill="white"/>
</svg>
